Coordinates
version=1
nRows=26
nColumns=22
inDegrees=yes

Units are S.I. units (second, meters, Newtons, ...)
If the header above contains a line with 'inDegrees', this indicates whether rotational values are in degrees (yes) or radians (no).

endheader
time	pelvis_tilt	pelvis_list	pelvis_rotation	pelvis_tx	pelvis_ty	pelvis_tz	hip_flexion_r	hip_adduction_r	hip_rotation_r	knee_angle_r	ankle_angle_r	subtalar_angle_r	hip_flexion_l	hip_adduction_l	hip_rotation_l	knee_angle_l	ankle_angle_l	subtalar_angle_l	lumbar_extension	lumbar_bending	lumbar_rotation
      1.25000000	     -1.91515031	      0.21276219	    -12.46943618	     -0.91739136	      0.89530578	     -0.51990521	     20.30417199	     -3.26932789	      4.93639529	    -47.90487277	     16.29092552	     -6.44849827	     -1.14887867	      3.54699408	    -12.70889859	    -15.19658574	     20.77058415	     -5.82733292	    -11.12768949	     -2.07115268	      2.30022129
      1.26000000	     -1.80395009	      0.07390226	    -12.13816715	     -0.91555484	      0.89553981	     -0.52036259	     21.12421056	     -3.09012218	      4.45295294	    -48.91594309	     16.41966860	     -7.02545196	     -1.53204631	      3.44867341	    -12.44997609	    -14.97598344	     20.74213669	     -5.66720623	    -11.38251372	     -1.88156432	      1.80754713
      1.27000000	     -1.70130123	     -0.05868467	    -11.78093958	     -0.91354071	      0.89575707	     -0.52082961	     21.88376738	     -2.95879535	      3.88117252	    -49.67836565	     16.51425434	     -7.28637289	     -1.93441722	      3.35914668	    -12.11883894	    -14.71800060	     20.75915358	     -5.56103018	    -11.60955907	     -1.68213291	      1.30938677
      1.28000000	     -1.60935669	     -0.23634666	    -11.40870144	     -0.91131157	      0.89599042	     -0.52122668	     22.53823870	     -2.80683902	      3.22576775	    -50.13688854	     16.74109033	     -8.06851363	     -2.35270172	      3.20502581	    -11.81981682	    -14.45657807	     20.69147069	     -5.37452944	    -11.81085670	     -1.42237380	      0.82480428
      1.29000000	     -1.55239379	     -0.36892248	    -11.02168572	     -0.90895435	      0.89611744	     -0.52165141	     23.20109270	     -2.73511388	      2.51807021	    -50.40236815	     16.82309193	     -8.28182172	     -2.72914984	      3.09335842	    -11.46380682	    -14.19693342	     20.68347561	     -5.28570539	    -11.95294711	     -1.19153961	      0.34182346
      1.30000000	     -1.45197949	     -0.53223784	    -10.64687871	     -0.90639863	      0.89629712	     -0.52195505	     23.71966273	     -2.64292351	      1.79576924	    -50.39865670	     16.99296700	     -8.91122321	     -3.17524581	      2.94428435	    -11.16485083	    -13.93507190	     20.65359290	     -5.11835739	    -12.13449930	     -0.94001217	     -0.11297124
      1.31000000	     -1.44367291	     -0.66445239	    -10.27749813	     -0.90375920	      0.89628291	     -0.52221170	     24.30344665	     -2.56551486	      1.09212112	    -50.20848527	     17.04310631	     -9.07671890	     -3.50465167	      2.80749735	    -10.81650276	    -13.70314912	     20.62975573	     -5.02675406	    -12.19663380	     -0.70274630	     -0.52955501
      1.32000000	     -1.40532634	     -0.79656667	     -9.91548357	     -0.90098322	      0.89624658	     -0.52237772	     24.79610150	     -2.49638574	      0.38105464	    -49.81542776	     17.09901990	     -9.28558810	     -3.85612619	      2.66530829	    -10.50720539	    -13.50657423	     20.65272165	     -4.89247811	    -12.28772715	     -0.47231482	     -0.94279401
      1.33000000	     -1.37055566	     -0.92630509	     -9.57540035	     -0.89808764	      0.89615040	     -0.52241558	     25.23203299	     -2.40572266	     -0.28329204	    -49.21780670	     17.12604547	     -9.47998410	     -4.19734840	      2.51548262	    -10.23302082	    -13.33587568	     20.70115657	     -4.72439959	    -12.36864376	     -0.25405180	     -1.31144441
      1.34000000	     -1.33543479	     -1.05307454	     -9.26077334	     -0.89509260	      0.89597397	     -0.52230913	     25.62721898	     -2.29294737	     -0.90070636	    -48.45981870	     17.13149542	     -9.61510836	     -4.52549231	      2.35755461	     -9.99546271	    -13.20435312	     20.78053818	     -4.53580494	    -12.44868538	     -0.05303983	     -1.64171106
      1.35000000	     -1.24947026	     -1.18304604	     -8.96573594	     -0.89195356	      0.89579847	     -0.52207545	     25.91525152	     -2.16854042	     -1.49460200	    -47.53610974	     17.11961685	     -9.71028815	     -4.91211029	      2.19510103	     -9.81954233	    -13.08521233	     20.88723893	     -4.22356607	    -12.58525978	      0.13576413	     -1.94034960
      1.36000000	     -1.22368686	     -1.30773831	     -8.67663258	     -0.88874491	      0.89546148	     -0.52173505	     26.22700994	     -2.01295690	     -2.03862456	    -46.46661259	     17.05455272	     -9.64777997	     -5.20209752	      2.01877037	     -9.62107836	    -13.03459858	     21.03115987	     -4.05791304	    -12.65292363	      0.32497895	     -2.23274081
      1.37000000	     -1.16290372	     -1.44451050	     -8.40454804	     -0.88538612	      0.89510883	     -0.52125079	     26.44727783	     -1.83225098	     -2.56297881	    -45.25427977	     16.97606070	     -9.48269799	     -5.54023349	      1.82799528	     -9.43383042	    -12.99007278	     21.19716786	     -3.87416948	    -12.75922224	      0.50842235	     -2.47225282
      1.38000000	     -1.05904399	     -1.58549424	     -8.15680672	     -0.88187057	      0.89475127	     -0.52062673	     26.57223594	     -1.63286451	     -3.05502009	    -43.91490399	     16.88358637	     -9.14094767	     -5.94286124	      1.63681654	     -9.24988272	    -12.93763621	     21.36449710	     -3.64588991	    -12.91354634	      0.67666150	     -2.66024762
      1.39000000	     -0.99237325	     -1.72663484	     -7.89521792	     -0.87825106	      0.89426201	     -0.51992164	     26.70003519	     -1.42781566	     -3.56169573	    -42.47869755	     16.74470551	     -8.88291310	     -6.27110166	      1.42359125	     -9.07345818	    -12.96225276	     21.59161421	     -3.52550131	    -13.02398124	      0.85279178	     -2.87710255
      1.40000000	     -0.85547231	     -1.86948486	     -7.65514365	     -0.87446181	      0.89381711	     -0.51907736	     26.70479399	     -1.21657616	     -4.05317640	    -40.94087235	     16.61895231	     -8.44187456	     -6.70886070	      1.22078103	     -8.86275247	    -12.94988204	     21.79617471	     -3.36099638	    -13.21378987	      1.00413315	     -3.02415176
      1.41000000	     -0.73597651	     -2.00762870	     -7.40999768	     -0.87053285	      0.89327430	     -0.51816007	     26.69825413	     -1.01749973	     -4.58015964	    -39.34260765	     16.45933792	     -8.03135226	     -7.11400101	      1.01065978	     -8.66020499	    -12.97925085	     22.02705182	     -3.23940899	    -13.37864958	      1.15435702	     -3.17737738
      1.42000000	     -0.59979857	     -2.14233408	     -7.16249021	     -0.86645195	      0.89269221	     -0.51716653	     26.64173092	     -0.83234853	     -5.14192431	    -37.69017334	     16.29375829	     -7.60584616	     -7.54245765	      0.80038882	     -8.45374806	    -13.01689975	     22.26444315	     -3.13532425	    -13.55835645	      1.29821161	     -3.31733317
      1.43000000	     -0.45514627	     -2.26940424	     -6.91341801	     -0.86222122	      0.89205652	     -0.51609772	     26.55338977	     -0.66724954	     -5.74303982	    -36.01148590	     16.13278221	     -7.18223086	     -7.98094755	      0.59205985	     -8.25344323	    -13.07021353	     22.50868178	     -3.05278232	    -13.74294769	      1.43175385	     -3.44911262
      1.44000000	     -0.30697355	     -2.39263855	     -6.65946148	     -0.85783893	      0.89136370	     -0.51495429	     26.44279265	     -0.52188019	     -6.39873650	    -34.32535886	     15.98243016	     -6.76434330	     -8.42705784	      0.37871276	     -8.06491389	    -13.13525564	     22.75669874	     -2.99245085	    -13.92633129	      1.55982470	     -3.56662736
      1.45000000	     -0.16751905	     -2.50907484	     -6.39458403	     -0.85332657	      0.89060113	     -0.51376619	     26.32693394	     -0.39585621	     -7.09294649	    -32.64893701	     15.84659765	     -6.41365621	     -8.84963419	      0.16179288	     -7.89199152	    -13.23883975	     23.02598075	     -2.95877690	    -14.09802324	      1.69034277	     -3.70949351
      1.46000000	     -0.06599526	     -2.63655209	     -6.12696132	     -0.84863441	      0.88972864	     -0.51249912	     26.24528241	     -0.27973932	     -7.89184756	    -31.01699279	     15.72582470	     -6.13698586	     -9.24218061	     -0.08088426	     -7.73654848	    -13.34735535	     23.28688435	     -2.94931868	    -14.21447165	      1.83818699	     -3.80664217
      1.47000000	      0.13926088	     -2.75548743	     -5.88098661	     -0.84375763	      0.88897792	     -0.51114343	     26.03465256	     -0.17747275	     -8.67711956	    -29.41481372	     15.66703493	     -5.65501530	     -9.80021425	     -0.29416172	     -7.56653831	    -13.37769641	     23.49701224	     -2.93745148	    -14.45039042	      1.96479812	     -3.88594540
      1.48000000	      0.27808632	     -2.87801496	     -5.60643242	     -0.83877716	      0.88807520	     -0.50974894	     25.90342414	     -0.09029914	     -9.54795612	    -27.89866249	     15.60788198	     -5.36690051	    -10.24093219	     -0.53956917	     -7.39383007	    -13.50379774	     23.75173610	     -2.94682878	    -14.60983976	      2.11221093	     -3.97267247
      1.49000000	      0.37742146	     -3.00620515	     -5.32068481	     -0.83361429	      0.88707602	     -0.50828474	     25.81772929	     -0.00975493	    -10.48465654	    -26.47845004	     15.55841196	     -5.18755373	    -10.64298215	     -0.80946772	     -7.24993887	    -13.64195503	     23.99152862	     -2.96646351	    -14.71069377	      2.27822044	     -4.09952597
      1.50000000	      0.53847316	     -3.14018136	     -5.03424768	     -0.82827293	      0.88614775	     -0.50674707	     25.65785210	      0.06755664	    -11.44669718	    -25.14209406	     15.54562744	     -4.98845662	    -11.13976220	     -1.08139848	     -7.07247348	    -13.75024525	     24.20138266	     -2.98271820	    -14.88256299	      2.44787718	     -4.20756656
